<svg width="512" height="512" viewBox="0 0 512 512" xmlns="http://www.w3.org/2000/svg">
  <defs>
    <linearGradient id="bg" x1="0" y1="0" x2="1" y2="1">
      <stop offset="0" stop-color="#C89EFF"/>
      <stop offset="1" stop-color="#8B5CF6"/>
    </linearGradient>
  </defs>
  <rect width="512" height="512" rx="116" fill="url(#bg)"/>
  <g fill="#ffffff">
    <rect x="224" y="92" width="64" height="86" rx="16"/>
    <rect x="238" y="170" width="36" height="26"/>
    <rect x="198" y="190" width="116" height="224" rx="32"/>
  </g>
  <path d="M256 312 C250 296 228 288 228 272 C228 263 235 257 243 257 C249 257 254 261 256 266 C258 261 263 257 269 257 C277 257 284 263 284 272 C284 288 262 296 256 312 Z" fill="#8B5CF6"/>
</svg>
